<?xml version="1.0" encoding="UTF-8" standalone="no"?>
<svg width="60px" height="60px" viewBox="0 0 60 60" version="1.1" xmlns="http://www.w3.org/2000/svg" xmlns:xlink="http://www.w3.org/1999/xlink" xmlns:sketch="http://www.bohemiancoding.com/sketch/ns">
    <!-- Generator: Sketch 3.2.2 (9983) - http://www.bohemiancoding.com/sketch -->
    <title>Celsius</title>
    <desc>Created with Sketch.</desc>
    <defs></defs>
    <g id="stroked" stroke="none" stroke-width="1" fill="none" fill-rule="evenodd" sketch:type="MSPage">
        <g id="Weather" sketch:type="MSLayerGroup" transform="translate(-486.000000, 4.000000)" stroke="#535353" stroke-width="2">
            <g id="Celsius" transform="translate(491.000000, 0.000000)" sketch:type="MSShapeGroup">
                <path d="M41,30.6817919 C45.6398324,32.1533493 49,36.4724217 49,41.5714286 C49,47.8832543 43.8512746,53 37.5,53 C31.1487254,53 26,47.8832543 26,41.5714286 C26,36.4724217 29.3601676,32.1533493 34,30.6817919 L34,13.005103 L41,13.005103 L41,30.6817919 Z" id="Oval-49" stroke-linecap="round" stroke-linejoin="round"></path>
                <rect id="Rectangle" x="34" y="0" width="7" height="13"></rect>
                <path d="M37,6 L34.1944444,6" id="Line" stroke-linecap="round" stroke-linejoin="round"></path>
                <path d="M37,20 L34.1944444,20" id="Line-17" stroke-linecap="round" stroke-linejoin="round"></path>
                <path d="M37,27 L34.1944444,27" id="Line-17" stroke-linecap="round" stroke-linejoin="round"></path>
                <path d="M22.9473152,9.41151619 C21.0631962,7.31705687 18.3318076,6 15.292804,6 C9.60824531,6 5,10.6082453 5,16.292804 C5,21.9773627 9.60824531,26.585608 15.292804,26.585608 C18.3602537,26.585608 21.1143026,25.2437795 23,23.1150734" id="Oval-1275" stroke-linecap="round" stroke-linejoin="round"></path>
                <circle id="Oval-1275" stroke-linecap="round" stroke-linejoin="round" cx="3" cy="4" r="3"></circle>
            </g>
        </g>
    </g>
</svg>