<?xml version="1.0" encoding="iso-8859-1"?>
<!DOCTYPE svg PUBLIC "-//W3C//DTD SVG 1.1//EN" "http://www.w3.org/Graphics/SVG/1.1/DTD/svg11.dtd">
<svg 
 version="1.1" xmlns="http://www.w3.org/2000/svg" xmlns:xlink="http://www.w3.org/1999/xlink" x="0px" y="0px" width="512px"
	 height="512px" viewBox="0 0 512 512" style="enable-background:new 0 0 512 512;" xml:space="preserve"
><g id="afcae5a789ccd549f9c6e2a2f815baaa"><g></g><g fill="#f28500"><path style="display: inline;" d="M256,15.5c12.604,0,24.424,4.381,33.281,12.335c8.404,7.548,13.033,17.396,13.033,27.729V339.54
		v7.108l5.502,4.501c19.127,15.649,30.098,38.771,30.098,63.437c0,45.168-36.746,81.914-81.914,81.914
		c-45.167,0-81.914-36.746-81.914-81.914c0-24.667,10.971-47.788,30.1-63.436l5.502-4.501v-7.109V55.564
		c0-10.333,4.629-20.181,13.034-27.729C231.579,19.881,243.397,15.5,256,15.5 M256,0.5c-33.72,0-61.312,24.779-61.312,55.064V339.54
		c-21.727,17.772-35.603,44.788-35.603,75.046c0,53.523,43.391,96.914,96.914,96.914c53.526,0,96.914-43.391,96.914-96.914
		c0-30.258-13.873-57.271-35.6-75.046V55.564C317.314,25.279,289.724,0.5,256,0.5L256,0.5z M282.252,358.93V159.086H229.39V358.93
		c-20.817,9.904-35.241,31.07-35.241,55.656c0,34.062,27.611,61.673,61.673,61.673c34.061,0,61.672-27.611,61.672-61.673
		C317.493,390,303.07,368.834,282.252,358.93z"></path></g></g></svg>