<?xml version="1.0" encoding="iso-8859-1"?>
<!DOCTYPE svg PUBLIC "-//W3C//DTD SVG 1.1//EN" "http://www.w3.org/Graphics/SVG/1.1/DTD/svg11.dtd">
<svg 
 version="1.1" xmlns="http://www.w3.org/2000/svg" xmlns:xlink="http://www.w3.org/1999/xlink" x="0px" y="0px" width="512px"
	 height="512px" viewBox="0 0 512 512" style="enable-background:new 0 0 512 512;" xml:space="preserve"
><g id="afcae5a789ccd549f9c6e2a2f80c521b"><g></g><path style="display: inline;" d="M426.334,436.98c0-11.761,9.531-21.292,21.292-21.292c11.76,0,21.292,9.531,21.292,21.292
		s-9.532,21.292-21.292,21.292C435.865,458.272,426.334,448.741,426.334,436.98z M447.626,96.313
		c11.76,0,21.292-9.532,21.292-21.292c0-11.76-9.532-21.292-21.292-21.292c-11.761,0-21.292,9.532-21.292,21.292
		C426.334,86.781,435.865,96.313,447.626,96.313z M64.375,458.272c11.76,0,21.292-9.531,21.292-21.292s-9.531-21.292-21.292-21.292
		s-21.292,9.531-21.292,21.292S52.615,458.272,64.375,458.272z M64.375,96.313c11.76,0,21.292-9.532,21.292-21.292
		c0-11.76-9.531-21.292-21.292-21.292S43.083,63.26,43.083,75.02C43.083,86.781,52.615,96.313,64.375,96.313z M128.25,437.646V75.02
		h255.501v362.625H128.25z M149.542,415.688h212.917V96.313H149.542V415.688z M192.125,245.354l-21.292,149.042h170.334
		l-21.292-149.042H192.125z M0.5,500.854V32.438V11.146h21.292h468.417H511.5v21.292v468.417H0.5z M21.792,32.438v446.46h468.417
		V32.438H21.792z"></path></g></svg>