<?xml version="1.0" encoding="iso-8859-1"?>
<!DOCTYPE svg PUBLIC "-//W3C//DTD SVG 1.1//EN" "http://www.w3.org/Graphics/SVG/1.1/DTD/svg11.dtd">
<svg 
 version="1.1" xmlns="http://www.w3.org/2000/svg" xmlns:xlink="http://www.w3.org/1999/xlink" x="0px" y="0px" width="512px"
	 height="512px" viewBox="0 0 512 512" style="enable-background:new 0 0 512 512;" xml:space="preserve"
><g id="afcae5a789ccd549f9c6e2a2f80c4a48"><g></g><path style="display: inline;" d="M85.667,75.02c0,11.761-9.531,21.292-21.292,21.292S43.083,86.781,43.083,75.02
		c0-11.76,9.532-21.292,21.292-21.292S85.667,63.26,85.667,75.02z M64.375,415.688c-11.76,0-21.292,9.531-21.292,21.292
		s9.532,21.292,21.292,21.292s21.292-9.531,21.292-21.292S76.135,415.688,64.375,415.688z M447.626,53.729
		c-11.761,0-21.292,9.532-21.292,21.292c0,11.761,9.531,21.292,21.292,21.292c11.76,0,21.292-9.532,21.292-21.292
		C468.918,63.26,459.386,53.729,447.626,53.729z M447.626,415.688c-11.761,0-21.292,9.531-21.292,21.292s9.531,21.292,21.292,21.292
		c11.76,0,21.292-9.531,21.292-21.292S459.386,415.688,447.626,415.688z M383.751,74.355V436.98H128.25V74.355H383.751z
		 M362.459,96.313H149.542v319.376h212.917V96.313z M319.875,266.646l21.292-149.041H170.833l21.292,149.041H319.875z M511.5,11.146
		v468.417v21.292h-21.292H21.792H0.5v-21.292V11.146H511.5z M490.208,479.563V33.103H21.792v446.46H490.208z"></path></g></svg>